# xmcd
#
# Track frame offsets:
#	150
#	19145
#	33094
#	48833
#	67318
#	85394
#	101627
#	115778
#	132344
#	150007
#	166635
#	178668
#	196168
#	213601
#	228682
#	246222
#	259114
#	274846
#	294227
#	310124
#	323761
#	342834
#
# Disc length: 4787 seconds
#
# Revision: 0
# Processed by: cddbd v1.5.2PL0 Copyright (c) Steve Scherf et al.
# Submitted via: audiograbber 1.83.01
#
DISCID=3012b116
DTITLE=XMIX - Mainstream and Rock March 2010
DYEAR=2010
DGENRE=ROCK
TTITLE0=Paramore - Brick By Boring Brick 165 BPM
TTITLE1=Neon Trees - Animal 148 BPM
TTITLE2=Theory Of A Deadman - Little Smirk [Explicit Lyrics] 147 BPM
TTITLE3=Rogue Wave - Good Morning (The Future) 139 BPM
TTITLE4=Blue October - Should Be Loved 138 BPM
TTITLE5=Motion City Soundtrack - Her Words Destroyed My Planet 136 BPM
TTITLE6=Weezer - I'm Your Daddy 135 BPM
TTITLE7=Needtobreathe - Hurricane 123 BPM
TTITLE8=Serena Ryder - All For Love 123 BPM
TTITLE9=Flobots - TIm Mcllrath - White Flag Warrior 116 BPM
TTITLE10=Charlotte Gainsbourg - Beck - Heaven Can Wait 105 BPM
TTITLE11=Barenaked Ladies - You Run Away 104 BPM
TTITLE12=Gorillaz - Bobby Womack - Stylo 100 BPM
TTITLE13=Snow Patrol - Martha Wainwright - Set The Fire To The Third Bar 96 BPM
TTITLE14=Richy Nix - In My Head 94 BPM
TTITLE15=Mudvayne - Scream With Me 90 BPM
TTITLE16=Jonny Diaz - More Beautiful You 78 BPM
TTITLE17=The Rocket Summer - Walls 78 BPM
TTITLE18=Cavo - Let It Go 70 BPM
TTITLE19=Hollywood Undead - Black Dahlia 70 BPM
TTITLE20=Leona Lewis - I See You [Theme From Avatar] 68 BPM
TTITLE21=Ron Pope - A Drop In The Ocean 46 BPM
EXTD=
EXTT0=
EXTT1=
EXTT2=
EXTT3=
EXTT4=
EXTT5=
EXTT6=
EXTT7=
EXTT8=
EXTT9=
EXTT10=
EXTT11=
EXTT12=
EXTT13=
EXTT14=
EXTT15=
EXTT16=
EXTT17=
EXTT18=
EXTT19=
EXTT20=
EXTT21=
PLAYORDER=
